# xmcd
#
# Track frame offsets:
#	150
#	26542
#	37805
#	55880
#	70092
#	94282
#	108602
#	124327
#	145072
#	159002
#	177220
#	191170
#	219400
#	235182
#	246525
#
# Disc length: 4257 seconds
#
# Revision: 2
# Processed by: cddbd v1.5.2PL0 Copyright (c) Steve Scherf et al.
# Submitted via: EasyCDDAExtractor 16.0.8.2
#
DISCID=d1109f0f
DTITLE=Συλλογικός δίσκος - Άξιον εστί-Lobgepriesen sei
DYEAR=2000
DGENRE=Έντεχνη
TTITLE0=Gunther Emmerlich-χορωδία - Genesis
TTITLE1=Gunther Emmerlich-χορωδία - Und hier, so sieh! bin ich
TTITLE2=Wilhelm Friedrich - Der Mensch an die Front (Lesung)
TTITLE3=Gunther Emmerlich-χορωδία - Nur diese eine Schwalbe
TTITLE4=Gunther Emmerlich-χορωδία - Berge um mich her mein fester Grund
TTITLE5=Gunther Emmerlich-χορωδία - Mit dem Lüster der Sterne
TTITLE6=Wilhelm Friedrich - Der große Exodus (Lesung)
TTITLE7=Gunther Emmerlich-χορωδία - Höre, reine Sonne der Gerechtigkeit
TTITLE8=Άνευ ερμηνευτού - Intermezzo
TTITLE9=Gunther Emmerlich-χορωδία - Purpurn färbte mich das Blut
TTITLE10=Gunther Emmerlich-χορωδία - Kirchen gestickt ins Lichtmuster des rund
TTITLE10=en Himmeldoms
TTITLE11=Wilhelm Friedrich - Weissagung (Lesung)
TTITLE12=Gunther Emmerlich-χορωδία - Ich öffne den Mund
TTITLE13=Gunther Emmerlich-χορωδία - Ich ziehe in ein Land hinab
TTITLE14=Gunther Emmerlich-χορωδία - Lobgepriesen sei
EXTD=
EXTT0=
EXTT1=
EXTT2=
EXTT3=
EXTT4=
EXTT5=
EXTT6=
EXTT7=
EXTT8=
EXTT9=
EXTT10=
EXTT11=
EXTT12=
EXTT13=
EXTT14=
PLAYORDER=
